<mxfile host="app.diagrams.net" modified="2024-03-04T15:16:49.377Z" agent="Mozilla/5.0 (Windows NT 10.0; Win64; x64) AppleWebKit/537.36 (KHTML, like Gecko) Chrome/122.0.0.0 Safari/537.36" etag="jdb_NK35ktl0vlEB4x5z" version="24.0.0" type="github">
  <diagram name="Page-1" id="nso62uT8IC39yMkhLrf0">
    <mxGraphModel dx="1050" dy="653" grid="1" gridSize="10" guides="1" tooltips="1" connect="1" arrows="1" fold="1" page="1" pageScale="1" pageWidth="850" pageHeight="1100" math="0" shadow="0">
      <root>
        <mxCell id="0" />
        <mxCell id="1" parent="0" />
        <mxCell id="cxpnOoDpJPA2fFIzwfwg-1" value="" style="shape=mxgraph.mockup.containers.marginRect;rectMarginTop=10;strokeColor=#666666;strokeWidth=1;dashed=0;rounded=1;arcSize=5;recursiveResize=0;html=1;whiteSpace=wrap;" vertex="1" parent="1">
          <mxGeometry x="20" y="40" width="260" height="430" as="geometry" />
        </mxCell>
        <mxCell id="cxpnOoDpJPA2fFIzwfwg-2" value="Tars" style="shape=rect;strokeColor=none;fillColor=#008cff;strokeWidth=1;dashed=0;rounded=1;arcSize=20;fontColor=#ffffff;fontSize=17;spacing=2;spacingTop=-2;align=left;autosize=1;spacingLeft=4;resizeWidth=0;resizeHeight=0;perimeter=none;html=1;whiteSpace=wrap;" vertex="1" parent="cxpnOoDpJPA2fFIzwfwg-1">
          <mxGeometry x="5" width="60" height="30" as="geometry" />
        </mxCell>
        <mxCell id="cxpnOoDpJPA2fFIzwfwg-8" value="" style="sketch=0;outlineConnect=0;fontColor=#232F3E;gradientColor=none;fillColor=#C925D1;strokeColor=none;dashed=0;verticalLabelPosition=bottom;verticalAlign=top;align=center;html=1;fontSize=12;fontStyle=0;aspect=fixed;pointerEvents=1;shape=mxgraph.aws4.rds_mysql_instance;" vertex="1" parent="cxpnOoDpJPA2fFIzwfwg-1">
          <mxGeometry x="150" y="20" width="78" height="78" as="geometry" />
        </mxCell>
        <mxCell id="cxpnOoDpJPA2fFIzwfwg-12" value="TarsNode" style="sketch=0;pointerEvents=1;shadow=0;dashed=0;html=1;strokeColor=none;labelPosition=center;verticalLabelPosition=bottom;verticalAlign=top;outlineConnect=0;align=center;shape=mxgraph.office.concepts.node_generic;fillColor=#DA4026;" vertex="1" parent="cxpnOoDpJPA2fFIzwfwg-1">
          <mxGeometry x="90" y="320" width="79" height="80" as="geometry" />
        </mxCell>
        <mxCell id="cxpnOoDpJPA2fFIzwfwg-14" value="Registry" style="sketch=0;outlineConnect=0;fontColor=#232F3E;gradientColor=none;fillColor=#ED7100;strokeColor=none;dashed=0;verticalLabelPosition=bottom;verticalAlign=top;align=center;html=1;fontSize=12;fontStyle=0;aspect=fixed;pointerEvents=1;shape=mxgraph.aws4.registry;" vertex="1" parent="cxpnOoDpJPA2fFIzwfwg-1">
          <mxGeometry x="150" y="170" width="70" height="70" as="geometry" />
        </mxCell>
        <mxCell id="cxpnOoDpJPA2fFIzwfwg-18" value="Frame servers" style="image;aspect=fixed;perimeter=ellipsePerimeter;html=1;align=center;shadow=0;dashed=0;spacingTop=3;image=img/lib/active_directory/server_farm.svg;" vertex="1" parent="cxpnOoDpJPA2fFIzwfwg-1">
          <mxGeometry x="21" y="98" width="70" height="70" as="geometry" />
        </mxCell>
        <mxCell id="cxpnOoDpJPA2fFIzwfwg-6" value="" style="shape=mxgraph.mockup.containers.marginRect;rectMarginTop=10;strokeColor=#666666;strokeWidth=1;dashed=0;rounded=1;arcSize=5;recursiveResize=0;html=1;whiteSpace=wrap;" vertex="1" parent="1">
          <mxGeometry x="440" y="60" width="260" height="430" as="geometry" />
        </mxCell>
        <mxCell id="cxpnOoDpJPA2fFIzwfwg-7" value="Kuberentes" style="shape=rect;strokeColor=none;fillColor=#008cff;strokeWidth=1;dashed=0;rounded=1;arcSize=20;fontColor=#ffffff;fontSize=17;spacing=2;spacingTop=-2;align=left;autosize=1;spacingLeft=4;resizeWidth=0;resizeHeight=0;perimeter=none;html=1;whiteSpace=wrap;" vertex="1" parent="cxpnOoDpJPA2fFIzwfwg-6">
          <mxGeometry x="5" width="110" height="30" as="geometry" />
        </mxCell>
        <mxCell id="cxpnOoDpJPA2fFIzwfwg-3" value="" style="aspect=fixed;sketch=0;html=1;dashed=0;whitespace=wrap;fillColor=#2875E2;strokeColor=#ffffff;points=[[0.005,0.63,0],[0.1,0.2,0],[0.9,0.2,0],[0.5,0,0],[0.995,0.63,0],[0.72,0.99,0],[0.5,1,0],[0.28,0.99,0]];shape=mxgraph.kubernetes.icon2;kubernetesLabel=1;prIcon=etcd" vertex="1" parent="cxpnOoDpJPA2fFIzwfwg-6">
          <mxGeometry x="152.50000000000003" y="20" width="83.33" height="80" as="geometry" />
        </mxCell>
        <mxCell id="cxpnOoDpJPA2fFIzwfwg-13" value="" style="aspect=fixed;sketch=0;html=1;dashed=0;whitespace=wrap;fillColor=#2875E2;strokeColor=#ffffff;points=[[0.005,0.63,0],[0.1,0.2,0],[0.9,0.2,0],[0.5,0,0],[0.995,0.63,0],[0.72,0.99,0],[0.5,1,0],[0.28,0.99,0]];shape=mxgraph.kubernetes.icon2;kubernetesLabel=1;prIcon=kubelet" vertex="1" parent="cxpnOoDpJPA2fFIzwfwg-6">
          <mxGeometry x="100" y="320" width="83.34" height="80" as="geometry" />
        </mxCell>
        <mxCell id="cxpnOoDpJPA2fFIzwfwg-15" value="" style="aspect=fixed;sketch=0;html=1;dashed=0;whitespace=wrap;fillColor=#2875E2;strokeColor=#ffffff;points=[[0.005,0.63,0],[0.1,0.2,0],[0.9,0.2,0],[0.5,0,0],[0.995,0.63,0],[0.72,0.99,0],[0.5,1,0],[0.28,0.99,0]];shape=mxgraph.kubernetes.icon2;kubernetesLabel=1;prIcon=k_proxy" vertex="1" parent="cxpnOoDpJPA2fFIzwfwg-6">
          <mxGeometry x="140" y="168" width="82.5" height="79.2" as="geometry" />
        </mxCell>
        <mxCell id="cxpnOoDpJPA2fFIzwfwg-17" value="" style="aspect=fixed;sketch=0;html=1;dashed=0;whitespace=wrap;fillColor=#2875E2;strokeColor=#ffffff;points=[[0.005,0.63,0],[0.1,0.2,0],[0.9,0.2,0],[0.5,0,0],[0.995,0.63,0],[0.72,0.99,0],[0.5,1,0],[0.28,0.99,0]];shape=mxgraph.kubernetes.icon2;kubernetesLabel=1;prIcon=control_plane" vertex="1" parent="cxpnOoDpJPA2fFIzwfwg-6">
          <mxGeometry x="8.96" y="70" width="102.08" height="98" as="geometry" />
        </mxCell>
      </root>
    </mxGraphModel>
  </diagram>
</mxfile>
